<svg xmlns="http://www.w3.org/2000/svg" viewBox="0 0 175.98 149.53">
    <defs>
        <style>.cls-1{fill:#FF9800;}</style>
    </defs>
    <path class="cls-1" d="M155.85,71.75C96,31.6,33.93,38.88,33.93,38.88,14.83,64.13,20.29,91,20.29,91c22.29,16.38,48.45,23.88,48.45,23.88,40.14,13.19,72.78,8.76,72.78,8.76A67,67,0,0,0,155.85,71.75Zm-20.24,41.17S81.46,118,30.75,84.6c0,0-1.37-18.76,9.09-34.57,0,0,54.81-5.57,105.08,28.2A58.69,58.69,0,0,1,135.61,112.92Z"/>
    <path class="cls-1" d="M164.41,78.9s1.48,24-11.37,42.42c0,0,19.33-3.53,22.52-17.29C175.56,104,179.31,94.14,164.41,78.9Z"/>
    <path class="cls-1" d="M22.45,41.15S10.73,58.32,11.3,83.23C11.3,83.23-20.43,53.88,22.45,41.15Z"/>
    <path class="cls-1" d="M22.6,102s46.05,32.53,111.34,30c0,0-26.83,28.66-72.21,12.74C61.73,144.72,32.27,133,22.6,102Z"/>
    <path class="cls-1" d="M110.82,16.48A18.32,18.32,0,0,1,117,12.79a7.56,7.56,0,1,0-1.62-7.86,27.44,27.44,0,0,0-12.8,9.3c-34-7.09-56.14,12.46-60.75,16.19,0,0,57.09-4.32,111.79,29.57C153.58,60,143.18,27.51,110.82,16.48Z"/>
</svg>